<mxfile host="Electron" agent="Mozilla/5.0 (Macintosh; Intel Mac OS X 10_15_7) AppleWebKit/537.36 (KHTML, like Gecko) draw.io/24.7.5 Chrome/126.0.6478.183 Electron/31.3.0 Safari/537.36" version="24.7.5">
  <diagram id="C5RBs43oDa-KdzZeNtuy" name="Page-1">
    <mxGraphModel dx="1606" dy="1254" grid="1" gridSize="10" guides="1" tooltips="1" connect="1" arrows="1" fold="1" page="1" pageScale="1" pageWidth="827" pageHeight="1169" math="0" shadow="0">
      <root>
        <mxCell id="WIyWlLk6GJQsqaUBKTNV-0" />
        <mxCell id="WIyWlLk6GJQsqaUBKTNV-1" parent="WIyWlLk6GJQsqaUBKTNV-0" />
        <mxCell id="8iNfwSm6mcZI2EN7qWGY-2" value="" style="edgeStyle=orthogonalEdgeStyle;rounded=0;orthogonalLoop=1;jettySize=auto;html=1;" edge="1" parent="WIyWlLk6GJQsqaUBKTNV-1" source="8iNfwSm6mcZI2EN7qWGY-0" target="8iNfwSm6mcZI2EN7qWGY-1">
          <mxGeometry relative="1" as="geometry" />
        </mxCell>
        <mxCell id="8iNfwSm6mcZI2EN7qWGY-0" value="start" style="ellipse;whiteSpace=wrap;html=1;" vertex="1" parent="WIyWlLk6GJQsqaUBKTNV-1">
          <mxGeometry x="140" y="100" width="100" height="60" as="geometry" />
        </mxCell>
        <mxCell id="8iNfwSm6mcZI2EN7qWGY-4" value="" style="edgeStyle=orthogonalEdgeStyle;rounded=0;orthogonalLoop=1;jettySize=auto;html=1;" edge="1" parent="WIyWlLk6GJQsqaUBKTNV-1" source="8iNfwSm6mcZI2EN7qWGY-1" target="8iNfwSm6mcZI2EN7qWGY-3">
          <mxGeometry relative="1" as="geometry" />
        </mxCell>
        <mxCell id="8iNfwSm6mcZI2EN7qWGY-1" value="initialize game" style="rounded=0;whiteSpace=wrap;html=1;" vertex="1" parent="WIyWlLk6GJQsqaUBKTNV-1">
          <mxGeometry x="130" y="190" width="120" height="60" as="geometry" />
        </mxCell>
        <mxCell id="8iNfwSm6mcZI2EN7qWGY-180" style="edgeStyle=orthogonalEdgeStyle;rounded=0;orthogonalLoop=1;jettySize=auto;html=1;entryX=0.5;entryY=0;entryDx=0;entryDy=0;" edge="1" parent="WIyWlLk6GJQsqaUBKTNV-1" source="8iNfwSm6mcZI2EN7qWGY-3" target="8iNfwSm6mcZI2EN7qWGY-179">
          <mxGeometry relative="1" as="geometry">
            <Array as="points">
              <mxPoint x="35" y="290" />
            </Array>
          </mxGeometry>
        </mxCell>
        <mxCell id="8iNfwSm6mcZI2EN7qWGY-3" value="present question" style="rounded=0;whiteSpace=wrap;html=1;" vertex="1" parent="WIyWlLk6GJQsqaUBKTNV-1">
          <mxGeometry x="130" y="270" width="120" height="60" as="geometry" />
        </mxCell>
        <mxCell id="8iNfwSm6mcZI2EN7qWGY-11" style="edgeStyle=orthogonalEdgeStyle;rounded=0;orthogonalLoop=1;jettySize=auto;html=1;entryX=1;entryY=0.5;entryDx=0;entryDy=0;" edge="1" parent="WIyWlLk6GJQsqaUBKTNV-1" source="8iNfwSm6mcZI2EN7qWGY-5" target="8iNfwSm6mcZI2EN7qWGY-7">
          <mxGeometry relative="1" as="geometry" />
        </mxCell>
        <mxCell id="8iNfwSm6mcZI2EN7qWGY-12" style="edgeStyle=orthogonalEdgeStyle;rounded=0;orthogonalLoop=1;jettySize=auto;html=1;exitX=0.5;exitY=1;exitDx=0;exitDy=0;entryX=0;entryY=0.5;entryDx=0;entryDy=0;" edge="1" parent="WIyWlLk6GJQsqaUBKTNV-1" source="8iNfwSm6mcZI2EN7qWGY-5" target="8iNfwSm6mcZI2EN7qWGY-8">
          <mxGeometry relative="1" as="geometry" />
        </mxCell>
        <mxCell id="8iNfwSm6mcZI2EN7qWGY-5" value="time check" style="rounded=0;whiteSpace=wrap;html=1;" vertex="1" parent="WIyWlLk6GJQsqaUBKTNV-1">
          <mxGeometry x="130" y="350" width="120" height="60" as="geometry" />
        </mxCell>
        <mxCell id="8iNfwSm6mcZI2EN7qWGY-14" value="" style="edgeStyle=orthogonalEdgeStyle;rounded=0;orthogonalLoop=1;jettySize=auto;html=1;" edge="1" parent="WIyWlLk6GJQsqaUBKTNV-1" source="8iNfwSm6mcZI2EN7qWGY-7" target="8iNfwSm6mcZI2EN7qWGY-13">
          <mxGeometry relative="1" as="geometry" />
        </mxCell>
        <mxCell id="8iNfwSm6mcZI2EN7qWGY-7" value="yes" style="rhombus;whiteSpace=wrap;html=1;" vertex="1" parent="WIyWlLk6GJQsqaUBKTNV-1">
          <mxGeometry x="70" y="430" width="70" height="60" as="geometry" />
        </mxCell>
        <mxCell id="8iNfwSm6mcZI2EN7qWGY-16" value="" style="edgeStyle=orthogonalEdgeStyle;rounded=0;orthogonalLoop=1;jettySize=auto;html=1;" edge="1" parent="WIyWlLk6GJQsqaUBKTNV-1" source="8iNfwSm6mcZI2EN7qWGY-8" target="8iNfwSm6mcZI2EN7qWGY-15">
          <mxGeometry relative="1" as="geometry" />
        </mxCell>
        <mxCell id="8iNfwSm6mcZI2EN7qWGY-8" value="yes" style="rhombus;whiteSpace=wrap;html=1;" vertex="1" parent="WIyWlLk6GJQsqaUBKTNV-1">
          <mxGeometry x="240" y="430" width="70" height="60" as="geometry" />
        </mxCell>
        <mxCell id="8iNfwSm6mcZI2EN7qWGY-18" style="edgeStyle=orthogonalEdgeStyle;rounded=0;orthogonalLoop=1;jettySize=auto;html=1;entryX=0.5;entryY=0;entryDx=0;entryDy=0;" edge="1" parent="WIyWlLk6GJQsqaUBKTNV-1" source="8iNfwSm6mcZI2EN7qWGY-13" target="8iNfwSm6mcZI2EN7qWGY-17">
          <mxGeometry relative="1" as="geometry">
            <Array as="points">
              <mxPoint x="155" y="600" />
              <mxPoint x="155" y="600" />
            </Array>
          </mxGeometry>
        </mxCell>
        <mxCell id="8iNfwSm6mcZI2EN7qWGY-13" value="receive answer" style="rounded=0;whiteSpace=wrap;html=1;" vertex="1" parent="WIyWlLk6GJQsqaUBKTNV-1">
          <mxGeometry x="45" y="520" width="120" height="60" as="geometry" />
        </mxCell>
        <mxCell id="8iNfwSm6mcZI2EN7qWGY-24" style="edgeStyle=orthogonalEdgeStyle;rounded=0;orthogonalLoop=1;jettySize=auto;html=1;" edge="1" parent="WIyWlLk6GJQsqaUBKTNV-1" source="8iNfwSm6mcZI2EN7qWGY-15" target="8iNfwSm6mcZI2EN7qWGY-23">
          <mxGeometry relative="1" as="geometry" />
        </mxCell>
        <mxCell id="8iNfwSm6mcZI2EN7qWGY-15" value="wait" style="rounded=0;whiteSpace=wrap;html=1;" vertex="1" parent="WIyWlLk6GJQsqaUBKTNV-1">
          <mxGeometry x="215" y="520" width="120" height="60" as="geometry" />
        </mxCell>
        <mxCell id="8iNfwSm6mcZI2EN7qWGY-21" style="edgeStyle=orthogonalEdgeStyle;rounded=0;orthogonalLoop=1;jettySize=auto;html=1;entryX=0;entryY=0.5;entryDx=0;entryDy=0;" edge="1" parent="WIyWlLk6GJQsqaUBKTNV-1" source="8iNfwSm6mcZI2EN7qWGY-17" target="8iNfwSm6mcZI2EN7qWGY-20">
          <mxGeometry relative="1" as="geometry">
            <Array as="points">
              <mxPoint x="140" y="730" />
            </Array>
          </mxGeometry>
        </mxCell>
        <mxCell id="8iNfwSm6mcZI2EN7qWGY-22" style="edgeStyle=orthogonalEdgeStyle;rounded=0;orthogonalLoop=1;jettySize=auto;html=1;entryX=1;entryY=0.5;entryDx=0;entryDy=0;" edge="1" parent="WIyWlLk6GJQsqaUBKTNV-1" source="8iNfwSm6mcZI2EN7qWGY-17" target="8iNfwSm6mcZI2EN7qWGY-19">
          <mxGeometry relative="1" as="geometry">
            <Array as="points">
              <mxPoint x="140" y="730" />
            </Array>
          </mxGeometry>
        </mxCell>
        <mxCell id="8iNfwSm6mcZI2EN7qWGY-17" value="check answer" style="rounded=0;whiteSpace=wrap;html=1;" vertex="1" parent="WIyWlLk6GJQsqaUBKTNV-1">
          <mxGeometry x="95" y="620" width="120" height="60" as="geometry" />
        </mxCell>
        <mxCell id="8iNfwSm6mcZI2EN7qWGY-29" value="" style="edgeStyle=orthogonalEdgeStyle;rounded=0;orthogonalLoop=1;jettySize=auto;html=1;" edge="1" parent="WIyWlLk6GJQsqaUBKTNV-1" source="8iNfwSm6mcZI2EN7qWGY-19" target="8iNfwSm6mcZI2EN7qWGY-28">
          <mxGeometry relative="1" as="geometry" />
        </mxCell>
        <mxCell id="8iNfwSm6mcZI2EN7qWGY-19" value="correct" style="rhombus;whiteSpace=wrap;html=1;" vertex="1" parent="WIyWlLk6GJQsqaUBKTNV-1">
          <mxGeometry x="45" y="700" width="70" height="60" as="geometry" />
        </mxCell>
        <mxCell id="8iNfwSm6mcZI2EN7qWGY-25" style="edgeStyle=orthogonalEdgeStyle;rounded=0;orthogonalLoop=1;jettySize=auto;html=1;entryX=0.5;entryY=0;entryDx=0;entryDy=0;" edge="1" parent="WIyWlLk6GJQsqaUBKTNV-1" source="8iNfwSm6mcZI2EN7qWGY-20" target="8iNfwSm6mcZI2EN7qWGY-23">
          <mxGeometry relative="1" as="geometry">
            <Array as="points">
              <mxPoint x="275" y="730" />
            </Array>
          </mxGeometry>
        </mxCell>
        <mxCell id="8iNfwSm6mcZI2EN7qWGY-20" value="incorrect" style="rhombus;whiteSpace=wrap;html=1;" vertex="1" parent="WIyWlLk6GJQsqaUBKTNV-1">
          <mxGeometry x="160" y="700" width="70" height="60" as="geometry" />
        </mxCell>
        <mxCell id="8iNfwSm6mcZI2EN7qWGY-30" value="" style="edgeStyle=orthogonalEdgeStyle;rounded=0;orthogonalLoop=1;jettySize=auto;html=1;" edge="1" parent="WIyWlLk6GJQsqaUBKTNV-1" source="8iNfwSm6mcZI2EN7qWGY-23" target="8iNfwSm6mcZI2EN7qWGY-27">
          <mxGeometry relative="1" as="geometry" />
        </mxCell>
        <mxCell id="8iNfwSm6mcZI2EN7qWGY-23" value="no score update" style="rounded=0;whiteSpace=wrap;html=1;" vertex="1" parent="WIyWlLk6GJQsqaUBKTNV-1">
          <mxGeometry x="215" y="790" width="120" height="60" as="geometry" />
        </mxCell>
        <mxCell id="8iNfwSm6mcZI2EN7qWGY-175" style="edgeStyle=orthogonalEdgeStyle;rounded=0;orthogonalLoop=1;jettySize=auto;html=1;entryX=1;entryY=0.5;entryDx=0;entryDy=0;" edge="1" parent="WIyWlLk6GJQsqaUBKTNV-1" source="8iNfwSm6mcZI2EN7qWGY-27" target="8iNfwSm6mcZI2EN7qWGY-174">
          <mxGeometry relative="1" as="geometry" />
        </mxCell>
        <mxCell id="8iNfwSm6mcZI2EN7qWGY-176" style="edgeStyle=orthogonalEdgeStyle;rounded=0;orthogonalLoop=1;jettySize=auto;html=1;entryX=0;entryY=0.5;entryDx=0;entryDy=0;" edge="1" parent="WIyWlLk6GJQsqaUBKTNV-1" source="8iNfwSm6mcZI2EN7qWGY-27" target="8iNfwSm6mcZI2EN7qWGY-173">
          <mxGeometry relative="1" as="geometry" />
        </mxCell>
        <mxCell id="8iNfwSm6mcZI2EN7qWGY-27" value="more questions" style="rounded=0;whiteSpace=wrap;html=1;" vertex="1" parent="WIyWlLk6GJQsqaUBKTNV-1">
          <mxGeometry x="215" y="910" width="120" height="60" as="geometry" />
        </mxCell>
        <mxCell id="8iNfwSm6mcZI2EN7qWGY-31" style="edgeStyle=orthogonalEdgeStyle;rounded=0;orthogonalLoop=1;jettySize=auto;html=1;entryX=0.5;entryY=0;entryDx=0;entryDy=0;" edge="1" parent="WIyWlLk6GJQsqaUBKTNV-1" source="8iNfwSm6mcZI2EN7qWGY-28" target="8iNfwSm6mcZI2EN7qWGY-27">
          <mxGeometry relative="1" as="geometry">
            <Array as="points">
              <mxPoint x="80" y="870" />
              <mxPoint x="275" y="870" />
            </Array>
          </mxGeometry>
        </mxCell>
        <mxCell id="8iNfwSm6mcZI2EN7qWGY-28" value="update score" style="rounded=0;whiteSpace=wrap;html=1;" vertex="1" parent="WIyWlLk6GJQsqaUBKTNV-1">
          <mxGeometry x="20" y="790" width="120" height="60" as="geometry" />
        </mxCell>
        <mxCell id="8iNfwSm6mcZI2EN7qWGY-178" style="edgeStyle=orthogonalEdgeStyle;rounded=0;orthogonalLoop=1;jettySize=auto;html=1;entryX=1;entryY=0.5;entryDx=0;entryDy=0;" edge="1" parent="WIyWlLk6GJQsqaUBKTNV-1" source="8iNfwSm6mcZI2EN7qWGY-173" target="8iNfwSm6mcZI2EN7qWGY-3">
          <mxGeometry relative="1" as="geometry">
            <Array as="points">
              <mxPoint x="410" y="1020" />
              <mxPoint x="410" y="300" />
            </Array>
          </mxGeometry>
        </mxCell>
        <mxCell id="8iNfwSm6mcZI2EN7qWGY-173" value="yes" style="rhombus;whiteSpace=wrap;html=1;" vertex="1" parent="WIyWlLk6GJQsqaUBKTNV-1">
          <mxGeometry x="300" y="990" width="70" height="60" as="geometry" />
        </mxCell>
        <mxCell id="8iNfwSm6mcZI2EN7qWGY-184" value="" style="edgeStyle=orthogonalEdgeStyle;rounded=0;orthogonalLoop=1;jettySize=auto;html=1;" edge="1" parent="WIyWlLk6GJQsqaUBKTNV-1" source="8iNfwSm6mcZI2EN7qWGY-174" target="8iNfwSm6mcZI2EN7qWGY-183">
          <mxGeometry relative="1" as="geometry" />
        </mxCell>
        <mxCell id="8iNfwSm6mcZI2EN7qWGY-174" value="no" style="rhombus;whiteSpace=wrap;html=1;" vertex="1" parent="WIyWlLk6GJQsqaUBKTNV-1">
          <mxGeometry x="180" y="990" width="70" height="60" as="geometry" />
        </mxCell>
        <mxCell id="8iNfwSm6mcZI2EN7qWGY-181" style="edgeStyle=orthogonalEdgeStyle;rounded=0;orthogonalLoop=1;jettySize=auto;html=1;entryX=0;entryY=0.5;entryDx=0;entryDy=0;" edge="1" parent="WIyWlLk6GJQsqaUBKTNV-1" source="8iNfwSm6mcZI2EN7qWGY-179" target="8iNfwSm6mcZI2EN7qWGY-5">
          <mxGeometry relative="1" as="geometry">
            <Array as="points">
              <mxPoint x="35" y="380" />
            </Array>
          </mxGeometry>
        </mxCell>
        <mxCell id="8iNfwSm6mcZI2EN7qWGY-179" value="max_iterations = 10" style="rounded=0;whiteSpace=wrap;html=1;" vertex="1" parent="WIyWlLk6GJQsqaUBKTNV-1">
          <mxGeometry x="-25" y="310" width="120" height="60" as="geometry" />
        </mxCell>
        <mxCell id="8iNfwSm6mcZI2EN7qWGY-186" style="edgeStyle=orthogonalEdgeStyle;rounded=0;orthogonalLoop=1;jettySize=auto;html=1;exitX=0.5;exitY=1;exitDx=0;exitDy=0;entryX=0.5;entryY=0;entryDx=0;entryDy=0;" edge="1" parent="WIyWlLk6GJQsqaUBKTNV-1" source="8iNfwSm6mcZI2EN7qWGY-183" target="8iNfwSm6mcZI2EN7qWGY-185">
          <mxGeometry relative="1" as="geometry" />
        </mxCell>
        <mxCell id="8iNfwSm6mcZI2EN7qWGY-183" value="winningScore =&amp;nbsp;&lt;div&gt;score # &amp;gt;&lt;/div&gt;" style="rounded=0;whiteSpace=wrap;html=1;" vertex="1" parent="WIyWlLk6GJQsqaUBKTNV-1">
          <mxGeometry x="20" y="990" width="120" height="60" as="geometry" />
        </mxCell>
        <mxCell id="8iNfwSm6mcZI2EN7qWGY-188" value="" style="edgeStyle=orthogonalEdgeStyle;rounded=0;orthogonalLoop=1;jettySize=auto;html=1;" edge="1" parent="WIyWlLk6GJQsqaUBKTNV-1" source="8iNfwSm6mcZI2EN7qWGY-185" target="8iNfwSm6mcZI2EN7qWGY-187">
          <mxGeometry relative="1" as="geometry" />
        </mxCell>
        <mxCell id="8iNfwSm6mcZI2EN7qWGY-185" value="output winningScore" style="rounded=0;whiteSpace=wrap;html=1;" vertex="1" parent="WIyWlLk6GJQsqaUBKTNV-1">
          <mxGeometry x="20" y="1070" width="120" height="60" as="geometry" />
        </mxCell>
        <mxCell id="8iNfwSm6mcZI2EN7qWGY-191" style="edgeStyle=orthogonalEdgeStyle;rounded=0;orthogonalLoop=1;jettySize=auto;html=1;entryX=0.5;entryY=1;entryDx=0;entryDy=0;" edge="1" parent="WIyWlLk6GJQsqaUBKTNV-1" source="8iNfwSm6mcZI2EN7qWGY-187" target="8iNfwSm6mcZI2EN7qWGY-189">
          <mxGeometry relative="1" as="geometry">
            <Array as="points">
              <mxPoint x="230" y="1150" />
              <mxPoint x="345" y="1150" />
            </Array>
          </mxGeometry>
        </mxCell>
        <mxCell id="8iNfwSm6mcZI2EN7qWGY-192" style="edgeStyle=orthogonalEdgeStyle;rounded=0;orthogonalLoop=1;jettySize=auto;html=1;entryX=0.5;entryY=1;entryDx=0;entryDy=0;" edge="1" parent="WIyWlLk6GJQsqaUBKTNV-1" source="8iNfwSm6mcZI2EN7qWGY-187" target="8iNfwSm6mcZI2EN7qWGY-190">
          <mxGeometry relative="1" as="geometry">
            <Array as="points">
              <mxPoint x="230" y="1150" />
              <mxPoint x="495" y="1150" />
            </Array>
          </mxGeometry>
        </mxCell>
        <mxCell id="8iNfwSm6mcZI2EN7qWGY-187" value="check end condition" style="rounded=0;whiteSpace=wrap;html=1;" vertex="1" parent="WIyWlLk6GJQsqaUBKTNV-1">
          <mxGeometry x="170" y="1070" width="120" height="60" as="geometry" />
        </mxCell>
        <mxCell id="8iNfwSm6mcZI2EN7qWGY-195" style="edgeStyle=orthogonalEdgeStyle;rounded=0;orthogonalLoop=1;jettySize=auto;html=1;exitX=0.5;exitY=0;exitDx=0;exitDy=0;" edge="1" parent="WIyWlLk6GJQsqaUBKTNV-1" source="8iNfwSm6mcZI2EN7qWGY-189">
          <mxGeometry relative="1" as="geometry">
            <mxPoint x="410" y="970" as="targetPoint" />
            <Array as="points">
              <mxPoint x="410" y="1070" />
            </Array>
          </mxGeometry>
        </mxCell>
        <mxCell id="8iNfwSm6mcZI2EN7qWGY-189" value="no" style="rhombus;whiteSpace=wrap;html=1;" vertex="1" parent="WIyWlLk6GJQsqaUBKTNV-1">
          <mxGeometry x="310" y="1070" width="70" height="60" as="geometry" />
        </mxCell>
        <mxCell id="8iNfwSm6mcZI2EN7qWGY-197" value="" style="edgeStyle=orthogonalEdgeStyle;rounded=0;orthogonalLoop=1;jettySize=auto;html=1;" edge="1" parent="WIyWlLk6GJQsqaUBKTNV-1" source="8iNfwSm6mcZI2EN7qWGY-190" target="8iNfwSm6mcZI2EN7qWGY-196">
          <mxGeometry relative="1" as="geometry" />
        </mxCell>
        <mxCell id="8iNfwSm6mcZI2EN7qWGY-190" value="yes" style="rhombus;whiteSpace=wrap;html=1;" vertex="1" parent="WIyWlLk6GJQsqaUBKTNV-1">
          <mxGeometry x="460" y="1070" width="70" height="60" as="geometry" />
        </mxCell>
        <mxCell id="8iNfwSm6mcZI2EN7qWGY-199" value="" style="edgeStyle=orthogonalEdgeStyle;rounded=0;orthogonalLoop=1;jettySize=auto;html=1;" edge="1" parent="WIyWlLk6GJQsqaUBKTNV-1" source="8iNfwSm6mcZI2EN7qWGY-196" target="8iNfwSm6mcZI2EN7qWGY-198">
          <mxGeometry relative="1" as="geometry" />
        </mxCell>
        <mxCell id="8iNfwSm6mcZI2EN7qWGY-196" value="output &quot;Game Over&quot;" style="rounded=0;whiteSpace=wrap;html=1;" vertex="1" parent="WIyWlLk6GJQsqaUBKTNV-1">
          <mxGeometry x="435" y="980" width="120" height="60" as="geometry" />
        </mxCell>
        <mxCell id="8iNfwSm6mcZI2EN7qWGY-201" value="" style="edgeStyle=orthogonalEdgeStyle;rounded=0;orthogonalLoop=1;jettySize=auto;html=1;" edge="1" parent="WIyWlLk6GJQsqaUBKTNV-1" source="8iNfwSm6mcZI2EN7qWGY-198" target="8iNfwSm6mcZI2EN7qWGY-200">
          <mxGeometry relative="1" as="geometry" />
        </mxCell>
        <mxCell id="8iNfwSm6mcZI2EN7qWGY-198" value="end game" style="rounded=0;whiteSpace=wrap;html=1;" vertex="1" parent="WIyWlLk6GJQsqaUBKTNV-1">
          <mxGeometry x="435" y="890" width="120" height="60" as="geometry" />
        </mxCell>
        <mxCell id="8iNfwSm6mcZI2EN7qWGY-200" value="end" style="ellipse;whiteSpace=wrap;html=1;" vertex="1" parent="WIyWlLk6GJQsqaUBKTNV-1">
          <mxGeometry x="450" y="800" width="90" height="60" as="geometry" />
        </mxCell>
      </root>
    </mxGraphModel>
  </diagram>
</mxfile>
